<?xml version="1.0" encoding="UTF-8"?>
<svg width="2412px" height="1164px" viewBox="0 0 2412 1164" version="1.1" xmlns="http://www.w3.org/2000/svg" xmlns:xlink="http://www.w3.org/1999/xlink">
    <title>landscape</title>
    <g id="landscape" stroke="none" stroke-width="1" fill="none" fill-rule="evenodd">
        <g id="编组" transform="translate(1206.000000, 582.000000) rotate(-90.000000) translate(-1206.000000, -582.000000) translate(624.000000, -624.000000)">
            <path d="M1044,36 L120,36 C77.3525716,36 42.6992514,70.2268459 42,112.710127 L42,2298 C42,2340.64743 76.2268459,2375.30075 118.710127,2376 L1044,2376 C1086.64743,2376 1121.30075,2341.77315 1122,2299.28987 L1122,114 C1122,70.9217895 1087.07821,36 1044,36 Z M1158,744 L1161,744 C1162.65685,744 1164,745.343146 1164,747 L1164,891 C1164,892.656854 1162.65685,894 1161,894 L1158,894 L1158,2306.86154 C1158,2364.34724 1110.25794,2411.05746 1050.99921,2412 L114.8,2412 C54.7114192,2412 6,2364.92791 6,2306.86154 L6,978 L3,978 C1.34314575,978 0,976.656854 0,975 L0,771 C0,769.343146 1.34314575,768 3,768 L6,768 L6,105.138462 C6,47.0720926 54.7114192,0 114.8,0 L1049.2,0 C1109.28858,0 1158,47.0720926 1158,105.138462 L1158,360 L1161,360 C1162.65685,360 1164,361.343146 1164,363 L1164,657 C1164,658.656854 1162.65685,660 1161,660 L1158,660 L1158,744 Z" id="形状" fill="#000000" fill-rule="nonzero"></path>
            <g id="camera" transform="translate(96.000000, 72.000000)">
                <rect id="矩形" fill="#000000" x="0" y="0" width="300" height="102" rx="51"></rect>
                <g transform="translate(30.000000, 27.000000)" id="椭圆形">
                    <circle fill="#404142" cx="24" cy="24" r="24"></circle>
                    <circle fill="#465885" opacity="0.699999988" cx="24" cy="24" r="12"></circle>
                    <circle fill="#5E729E" cx="20" cy="20" r="4"></circle>
                </g>
                <g transform="translate(222.000000, 27.000000)" id="椭圆形">
                    <circle fill="#404142" cx="24" cy="24" r="24"></circle>
                    <circle fill="#465885" opacity="0.699999988" cx="24" cy="24" r="12"></circle>
                    <circle fill="#5E729E" cx="20" cy="20" r="4"></circle>
                </g>
            </g>
            <rect id="屏幕" x="42" y="36" width="1080" height="2340" rx="78"></rect>
        </g>
    </g>
</svg>