<?xml version="1.0" encoding="UTF-8"?>
<svg width="2652px" height="1302px" viewBox="0 0 2652 1302" version="1.1" xmlns="http://www.w3.org/2000/svg" xmlns:xlink="http://www.w3.org/1999/xlink">
    <title>iPhone 13（横屏）</title>
    <g id="iPhone-13（横屏）" stroke="none" stroke-width="1" fill="none" fill-rule="evenodd">
        <path d="M888.561014,-675 C774.603,-675 682.22187,-582.589946 682.22187,-468.596251 L682.22187,-142.478329 L680.158479,-142.478329 C677.309533,-142.478329 675,-140.167639 675,-137.318235 L675,-51.6606794 C675,-48.8112757 677.309533,-46.5005857 680.158479,-46.5005857 L682.22187,-46.5005857 L682.22187,47.4131199 L680.158479,47.4131199 C677.309533,47.4131199 675,49.7238098 675,52.5732136 L675,238.336587 C675,241.185991 677.309533,243.496681 680.158479,243.496681 L682.22187,243.496681 L682.22187,298.193674 L680.158479,298.193674 C677.309533,298.193674 675,300.504364 675,303.353768 L675,489.117142 C675,491.965513 677.309533,494.277235 680.158479,494.277235 L682.22187,494.277235 L682.22187,1770.59625 C682.22187,1884.59304 774.603,1977 888.561014,1977 L1763.43899,1977 C1877.4001,1977 1969.77813,1884.59304 1969.77813,1770.59625 L1969.77813,428.228036 L1971.84152,428.228036 C1974.689,428.228036 1977,425.916314 1977,423.067942 L1977,116.558376 C1977,113.708972 1974.689,111.398282 1971.84152,111.398282 L1969.77813,111.398282 L1969.77813,-468.596251 C1969.77813,-582.589946 1877.4001,-675 1763.43899,-675 L888.561014,-675 Z M1763.43899,-612 L1589.08654,-612 C1571.10821,-611.574189 1566.35725,-603.161791 1566.34487,-590.019755 L1566.34074,-609.972705 C1566.34074,-583.746426 1566.34074,-569.554101 1562.72568,-558.991389 C1556.0114,-539.376841 1540.60922,-523.970865 1521.00287,-517.255519 C1510.44347,-513.638294 1497.33371,-513.638294 1471.11419,-513.638294 L1179.85411,-513.638294 C1153.6346,-513.638294 1140.52484,-513.638294 1129.96543,-517.255519 C1110.35909,-523.970865 1094.9569,-539.376841 1088.24263,-558.991389 C1083.0501,-574.164129 1084.62756,-629.798195 1084.62756,-589.986421 C1084.61931,-603.147756 1079.87661,-611.573673 1061.8859,-612 L888.561014,-612 C808.790301,-612 744.123613,-547.313065 744.123613,-467.517376 L744.123613,1770.59625 C744.123613,1850.39194 808.790301,1917 888.561014,1917 L1763.43899,1917 C1843.2097,1917 1907.87639,1850.39194 1907.87639,1770.59625 L1907.87639,-467.517376 C1907.87639,-547.313065 1843.2097,-612 1763.43899,-612 Z" id="形状" fill="#000000" transform="translate(1326.000000, 651.000000) rotate(-90.000000) translate(-1326.000000, -651.000000) "></path>
        <g id="编组" transform="translate(102.000000, 825.000000) rotate(-90.000000) translate(-102.000000, -825.000000) translate(78.000000, 801.000000)">
            <circle id="椭圆形" fill="#404142" cx="24" cy="24" r="24"></circle>
            <circle id="椭圆形" fill="#465885" opacity="0.699999988" cx="24" cy="24" r="14.4"></circle>
            <circle id="椭圆形" fill="#5E729E" cx="19.2" cy="19.2" r="4.8"></circle>
        </g>
        <rect id="speaker" fill="#404142" transform="translate(28.500000, 649.500000) rotate(-90.000000) translate(-28.500000, -649.500000) " x="-69" y="645" width="195" height="9" rx="4.5"></rect>
        <rect id="屏幕" transform="translate(1326.000000, 651.000000) rotate(-90.000000) translate(-1326.000000, -651.000000) " x="741" y="-615" width="1170" height="2532" rx="153"></rect>
    </g>
</svg>