<?xml version="1.0" encoding="UTF-8"?>
<svg width="3918px" height="2718px" viewBox="0 0 3918 2718" version="1.1" xmlns="http://www.w3.org/2000/svg" xmlns:xlink="http://www.w3.org/1999/xlink">
    <title>landscape</title>
    <g id="landscape" stroke="none" stroke-width="1" fill="none" fill-rule="evenodd">
        <g id="编组" transform="translate(1959.000000, 1359.000000) rotate(-90.000000) translate(-1959.000000, -1359.000000) translate(600.000000, -600.000000)">
            <path d="M2556,0 C2645.47013,-1.64353962e-14 2718,72.5298705 2718,162 L2718,3756 C2718,3845.47013 2645.47013,3918 2556,3918 L162,3918 C72.5298705,3918 1.09569308e-14,3845.47013 0,3756 L0,162 C-1.09569308e-14,72.5298705 72.5298705,1.64353962e-14 162,0 L2556,0 Z M2574,324 L144,324 L144,3564 L2574,3564 L2574,324 Z" id="形状结合" fill="#E6E6E7"></path>
            <path d="M2532,24 C2621.47013,24 2694,96.5298705 2694,186 L2694,3732 C2694,3821.47013 2621.47013,3894 2532,3894 L186,3894 C96.5298705,3894 24,3821.47013 24,3732 L24,186 C24,96.5298705 96.5298705,24 186,24 L2532,24 Z M2574,324 L144,324 L144,3564 L2574,3564 L2574,324 Z" id="形状结合" fill="#FFFFFF"></path>
            <g id="Camera" transform="translate(1347.000000, 162.000000)">
                <path d="M0,0 L27,0 L27,27 L0,27 L0,0 Z" id="Camera-(Background)"></path>
                <path d="M27,13.5 C27,6.04415551 20.9558445,0 13.5,0 C6.04415551,0 0,6.04415551 0,13.5 C0,20.9558445 6.04415551,27 13.5,27 C20.9558445,27 27,20.9558445 27,13.5 Z" id="Oval" fill="#262C2D"></path>
                <path d="M21.9375,13.5 C21.9375,8.84009729 18.1599027,5.0625 13.5,5.0625 C8.84009729,5.0625 5.0625,8.84009729 5.0625,13.5 C5.0625,18.1599027 8.84009729,21.9375 13.5,21.9375 C18.1599027,21.9375 21.9375,18.1599027 21.9375,13.5 Z" id="Oval" fill="#121515"></path>
                <path d="M15.1875,10.125 C15.1875,9.19301944 14.4319806,8.4375 13.5,8.4375 C12.5680194,8.4375 11.8125,9.19301944 11.8125,10.125 C11.8125,11.0569806 12.5680194,11.8125 13.5,11.8125 C14.4319806,11.8125 15.1875,11.0569806 15.1875,10.125 Z" id="Oval" fill="#636F73" opacity="0.400000006"></path>
            </g>
            <rect id="inner-border" stroke="#2E2F30" stroke-width="12" x="138" y="318" width="2442" height="3252"></rect>
            <circle id="btn" stroke="#B8BBBF" stroke-width="9" cx="1359" cy="3738" r="88.5"></circle>
            <rect id="屏幕" x="144" y="324" width="2430" height="3240"></rect>
        </g>
    </g>
</svg>