<?xml version="1.0" encoding="UTF-8"?>
<svg width="2802px" height="1410px" viewBox="0 0 2802 1410" version="1.1" xmlns="http://www.w3.org/2000/svg" xmlns:xlink="http://www.w3.org/1999/xlink">
    <title>landscape</title>
    <g id="landscape" stroke="none" stroke-width="1" fill="none" fill-rule="evenodd">
        <circle id="btn" stroke="#B8BBBF" stroke-width="9" transform="translate(2622.000000, 705.000000) rotate(-90.000000) translate(-2622.000000, -705.000000) " cx="2622" cy="705" r="88.5"></circle>
        <path d="M2022,-426.948172 L780,-426.948172 L780,1781.87867 L2022,1781.87867 L2022,-426.948172 Z M2094,1910.42329 C2094,2025.06722 2001.14109,2106 1886.59382,2106 L915.406176,2106 C800.858913,2106 708,2025.06722 708,1910.42329 L708,308.327068 L702,308.327068 C698.686292,308.327068 696,305.63977 696,302.324821 L696,122.257415 C696,118.942466 698.686292,116.255168 702,116.255168 L708,116.255168 L708,32.2237124 L702,32.2237124 C698.686292,32.2237124 696,29.5364149 696,26.2214655 L696,-153.84594 C696,-157.160889 698.686292,-159.848187 702,-159.848187 L708,-159.848187 L708,-243.879643 L702,-243.879643 C698.686292,-243.879643 696,-246.56694 696,-249.88189 L696,-333.913346 C696,-337.228295 698.686292,-339.915592 702,-339.915592 L708,-339.915592 L708,-488.418799 C708,-603.062725 800.858913,-696 915.406176,-696 L1886.59382,-696 C2001.14109,-696 2094,-603.062725 2094,-488.418799 L2094,-96.8245949 L2100,-96.8245949 C2103.31371,-96.8245949 2106,-94.1372975 2106,-90.8223481 L2106,197.285501 C2106,200.60045 2103.31371,203.287748 2100,203.287748 L2094,203.287748 L2094,1910.42329 Z" id="Device-border" fill="#E6E6E7" transform="translate(1401.000000, 705.000000) rotate(-90.000000) translate(-1401.000000, -705.000000) "></path>
        <path d="M1881.18248,-673 C1985.46351,-673 2070,-588.465592 2070,-484.187135 L2070,1898.76143 C2070,2003.03989 1985.46351,2083 1881.18248,2083 L920.817518,2083 C816.536492,2083 732,2003.03989 732,1898.76143 L732,-484.187135 C732,-588.465592 816.536492,-673 920.817518,-673 L1881.18248,-673 Z M2022,-425.948188 L780,-425.948188 L780,1784.51125 L2022,1784.51125 L2022,-425.948188 Z" id="Device-BG" fill="#FFFFFF" transform="translate(1401.000000, 705.000000) rotate(-90.000000) translate(-1401.000000, -705.000000) "></path>
        <rect id="inner-border" stroke="#2E2F30" stroke-width="6" transform="translate(1374.000000, 705.000000) rotate(-90.000000) translate(-1374.000000, -705.000000) " x="750" y="-402" width="1248" height="2214"></rect>
        <g id="camera" transform="translate(108.000000, 705.000000) rotate(-90.000000) translate(-108.000000, -705.000000) translate(-45.000000, 651.000000)">
            <rect id="矩形" fill="#515055" x="96" y="81" width="210" height="18" rx="9"></rect>
            <circle id="椭圆形" fill="#2E2F30" cx="18" cy="90" r="18"></circle>
            <circle id="椭圆形" fill="#465885" opacity="0.699999988" cx="18" cy="90" r="9"></circle>
            <circle id="椭圆形" fill="#5E729E" cx="15" cy="87" r="3"></circle>
            <circle id="椭圆形" fill="#515055" cx="201" cy="12" r="12"></circle>
        </g>
        <rect id="屏幕" transform="translate(1374.000000, 705.000000) rotate(-90.000000) translate(-1374.000000, -705.000000) " x="753" y="-399" width="1242" height="2208"></rect>
    </g>
</svg>