<?xml version="1.0" encoding="UTF-8"?>
<svg width="1116px" height="2376px" viewBox="0 0 1116 2376" version="1.1" xmlns="http://www.w3.org/2000/svg" xmlns:xlink="http://www.w3.org/1999/xlink">
    <title>portrait</title>
    <g id="portrait" stroke="none" stroke-width="1" fill="none" fill-rule="evenodd">
        <g id="device" fill="#000000" fill-rule="nonzero">
            <path d="M990,48 L126,48 C66.9497145,48 18.9681943,95.3910174 18.0144689,154.214023 L18,156 L18,2220 C18,2279.05029 65.3910174,2327.03181 124.214023,2328 L126,2328 L990,2328 C1049.05029,2328 1097.03181,2280.60898 1097.98553,2221.78598 L1098,2220 L1098,156 C1098,96.353247 1049.64675,48 990,48 Z M1110,2268 C1110,2327.64675 1061.64675,2376 1002,2376 L114,2376 C54.353247,2376 6,2327.64675 6,2268 L6,672 C2.6862915,672 0,669.313708 0,666 L0,588 C0,584.686292 2.6862915,582 6,582 L6,510 C2.6862915,510 0,507.313708 0,504 L0,336 C0,332.686292 2.6862915,330 6,330 L6,108 C6,48.353247 54.353247,0 114,0 L1002,0 C1061.64675,0 1110,48.353247 1110,108 L1110,330 L1113,330 C1114.65685,330 1116,331.343146 1116,333 L1116,447 C1116,448.656854 1114.65685,450 1113,450 L1110,450 L1110,2268 Z" id="形状"></path>
        </g>
        <g id="camera" transform="translate(942.000000, 84.000000)">
            <path d="M39,78 C60.5391052,78 78,60.5391052 78,39 C78,17.4608948 60.5391052,0 39,0 C17.4608948,0 0,17.4608948 0,39 C0,60.5391052 17.4608948,78 39,78 Z" id="椭圆形" fill="#000000" fill-rule="nonzero"></path>
            <circle id="椭圆形" fill="#465885" opacity="0.699999988" cx="39" cy="39" r="19.5"></circle>
            <circle id="椭圆形" fill="#5E729E" cx="32.5" cy="32.5" r="6.5"></circle>
            <circle id="椭圆形备份" fill="#6D84B7" cx="47" cy="50" r="3"></circle>
        </g>
        <rect id="屏幕" x="18" y="48" width="1080" height="2280" rx="108"></rect>
    </g>
</svg>