<?xml version="1.0" encoding="UTF-8"?>
<svg width="1302px" height="2652px" viewBox="0 0 1302 2652" version="1.1" xmlns="http://www.w3.org/2000/svg" xmlns:xlink="http://www.w3.org/1999/xlink">
    <title>iPhone 13（竖屏）</title>
    <g id="iPhone-13（竖屏）" stroke="none" stroke-width="1" fill="none" fill-rule="evenodd">
        <path d="M213.561014,0 C99.603,0 7.22187005,92.4100543 7.22187005,206.403749 L7.22187005,532.521671 L5.15847861,532.521671 C2.30953341,532.521671 0,534.832361 0,537.681765 L0,623.339321 C0,626.188724 2.30953341,628.499414 5.15847861,628.499414 L7.22187005,628.499414 L7.22187005,722.41312 L5.15847861,722.41312 C2.30953341,722.41312 0,724.72381 0,727.573214 L0,913.336587 C0,916.185991 2.30953341,918.496681 5.15847861,918.496681 L7.22187005,918.496681 L7.22187005,973.193674 L5.15847861,973.193674 C2.30953341,973.193674 0,975.504364 0,978.353768 L0,1164.11714 C0,1166.96551 2.30953341,1169.27724 5.15847861,1169.27724 L7.22187005,1169.27724 L7.22187005,2445.59625 C7.22187005,2559.59304 99.603,2652 213.561014,2652 L1088.43899,2652 C1202.4001,2652 1294.77813,2559.59304 1294.77813,2445.59625 L1294.77813,1103.22804 L1296.84152,1103.22804 C1299.689,1103.22804 1302,1100.91631 1302,1098.06794 L1302,791.558376 C1302,788.708972 1299.689,786.398282 1296.84152,786.398282 L1294.77813,786.398282 L1294.77813,206.403749 C1294.77813,92.4100543 1202.4001,0 1088.43899,0 L213.561014,0 Z M1088.43899,63 L914.086536,63 C896.108206,63.4258109 891.357247,71.8382085 891.344867,84.9802448 L891.34074,65.0272946 C891.34074,91.2535741 891.34074,105.445899 887.725678,116.008611 C881.011403,135.623159 865.609217,151.029135 846.002872,157.744481 C835.443466,161.361706 822.333708,161.361706 796.114193,161.361706 L504.854111,161.361706 C478.634596,161.361706 465.524838,161.361706 454.965433,157.744481 C435.359087,151.029135 419.956902,135.623159 413.242626,116.008611 C408.050101,100.835871 409.627564,45.2018048 409.627564,85.013579 C409.619311,71.852244 404.876605,63.4263269 386.885895,63 L213.561014,63 C133.790301,63 69.1236133,127.686935 69.1236133,207.482624 L69.1236133,2445.59625 C69.1236133,2525.39194 133.790301,2592 213.561014,2592 L1088.43899,2592 C1168.2097,2592 1232.87639,2525.39194 1232.87639,2445.59625 L1232.87639,207.482624 C1232.87639,127.686935 1168.2097,63 1088.43899,63 Z" id="形状" fill="#000000"></path>
        <g id="编组" transform="translate(453.000000, 78.000000)">
            <circle id="椭圆形" fill="#404142" cx="24" cy="24" r="24"></circle>
            <circle id="椭圆形" fill="#465885" opacity="0.699999988" cx="24" cy="24" r="14.4"></circle>
            <circle id="椭圆形" fill="#5E729E" cx="19.2" cy="19.2" r="4.8"></circle>
        </g>
        <rect id="speaker" fill="#404142" x="555" y="24" width="195" height="9" rx="4.5"></rect>
        <rect id="屏幕" x="66" y="60" width="1170" height="2532" rx="153"></rect>
    </g>
</svg>