<?xml version="1.0" encoding="UTF-8"?>
<svg width="1164px" height="2412px" viewBox="0 0 1164 2412" version="1.1" xmlns="http://www.w3.org/2000/svg" xmlns:xlink="http://www.w3.org/1999/xlink">
    <title>portrait</title>
    <g id="portrait" stroke="none" stroke-width="1" fill="none" fill-rule="evenodd">
        <rect id="cell" x="0" y="0" width="1164" height="2412"></rect>
        <path d="M1014,36 L150,36 C138.318993,36 127.071113,37.8544393 116.534705,41.2849732 C85.1000954,50.4636445 60.0997622,73.9715119 49.6713456,103.947729 C44.9576147,115.742367 42.2642822,128.5635 42.0184631,141.98269 L42,144 L42,2268 C42,2282.16096 44.7254457,2295.68536 49.6804073,2308.07727 C60.1359286,2338.10652 85.216809,2361.64227 116.740209,2370.78035 C126.561563,2373.9576 136.999867,2375.76509 147.829024,2376 L150,2376 L1014,2376 C1025.68101,2376 1036.92889,2374.14556 1047.46529,2370.71503 C1078.8999,2361.53636 1103.90024,2338.02849 1114.32865,2308.05227 C1119.04239,2296.25763 1121.73572,2283.4365 1121.98154,2270.01731 L1122,2268 L1122,144 C1122,129.850465 1119.27895,116.336464 1114.33158,103.95273 C1103.90845,73.9895804 1078.92735,50.4882894 1047.51211,41.3005375 C1036.96305,37.8600759 1025.69875,36 1014,36 Z M1158,864 L1161,864 C1162.65685,864 1164,865.343146 1164,867 L1164,1011 C1164,1012.65685 1162.65685,1014 1161,1014 L1158,1014 L1158,2306.86154 C1158,2364.92791 1109.28858,2412 1049.2,2412 L114.8,2412 C54.7114192,2412 6,2364.92791 6,2306.86154 L6,105.138462 C6,47.0720926 54.7114192,0 114.8,0 L1049.2,0 C1109.28858,0 1158,47.0720926 1158,105.138462 L1158,480 L1161,480 C1162.65685,480 1164,481.343146 1164,483 L1164,777 C1164,778.656854 1162.65685,780 1161,780 L1158,780 L1158,864 Z" id="形状" fill="#000000" fill-rule="nonzero"></path>
        <rect id="屏幕" x="42" y="36" width="1080" height="2340" rx="108"></rect>
    </g>
</svg>