<?xml version="1.0" encoding="UTF-8"?>
<svg width="1410px" height="2802px" viewBox="0 0 1410 2802" version="1.1" xmlns="http://www.w3.org/2000/svg" xmlns:xlink="http://www.w3.org/1999/xlink">
    <title>portrait</title>
    <g id="portrait" stroke="none" stroke-width="1" fill="none" fill-rule="evenodd">
        <path d="M1326,269.051828 L84,269.051828 L84,2477.87867 L1326,2477.87867 L1326,269.051828 Z M1398,2606.42329 C1398,2721.06722 1305.14109,2802 1190.59382,2802 L219.406176,2802 C104.858913,2802 12,2721.06722 12,2606.42329 L12,1004.32707 L6,1004.32707 C2.6862915,1004.32707 0,1001.63977 0,998.324821 L0,818.257415 C0,814.942466 2.6862915,812.255168 6,812.255168 L12,812.255168 L12,728.223712 L6,728.223712 C2.6862915,728.223712 0,725.536415 0,722.221466 L0,542.15406 C0,538.839111 2.6862915,536.151813 6,536.151813 L12,536.151813 L12,452.120357 L6,452.120357 C2.6862915,452.120357 0,449.43306 0,446.11811 L0,362.086654 C0,358.771705 2.6862915,356.084408 6,356.084408 L12,356.084408 L12,207.581201 C12,92.9372747 104.858913,0 219.406176,0 L1190.59382,0 C1305.14109,0 1398,92.9372747 1398,207.581201 L1398,599.175405 L1404,599.175405 C1407.31371,599.175405 1410,601.862703 1410,605.177652 L1410,893.285501 C1410,896.60045 1407.31371,899.287748 1404,899.287748 L1398,899.287748 L1398,2606.42329 Z" id="Device-border" fill="#E6E6E7"></path>
        <path d="M1185.18248,23 C1289.46351,23 1374,107.534408 1374,211.812865 L1374,2594.76143 C1374,2699.03989 1289.46351,2779 1185.18248,2779 L224.817518,2779 C120.536492,2779 36,2699.03989 36,2594.76143 L36,211.812865 C36,107.534408 120.536492,23 224.817518,23 L1185.18248,23 Z M1326,270.051812 L84,270.051812 L84,2480.51125 L1326,2480.51125 L1326,270.051812 Z" id="Device-BG" fill="#FFFFFF"></path>
        <rect id="inner-border" stroke="#2E2F30" stroke-width="6" x="81" y="267" width="1248" height="2214"></rect>
        <circle id="btn" stroke="#B8BBBF" stroke-width="9" cx="705" cy="2622" r="88.5"></circle>
        <g id="camera" transform="translate(552.000000, 54.000000)">
            <rect id="矩形" fill="#515055" x="96" y="81" width="210" height="18" rx="9"></rect>
            <circle id="椭圆形" fill="#2E2F30" cx="18" cy="90" r="18"></circle>
            <circle id="椭圆形" fill="#465885" opacity="0.699999988" cx="18" cy="90" r="9"></circle>
            <circle id="椭圆形" fill="#5E729E" cx="15" cy="87" r="3"></circle>
            <circle id="椭圆形" fill="#515055" cx="201" cy="12" r="12"></circle>
        </g>
        <rect id="屏幕" x="84" y="270" width="1242" height="2208"></rect>
    </g>
</svg>